<svg class="logo" version="1.1" xmlns="http://www.w3.org/2000/svg" xmlns:xlink="http://www.w3.org/1999/xlink" x="0px" y="0px" width="100%" viewBox="0 0 637 637" enable-background="new 0 0 637 637">

<drefs>
<g id="brain2">
  <g id="SVGRepo_bgCarrier" stroke-width="0"></g>
  <g id="SVGRepo_tracerCarrier" stroke-linecap="round" stroke-linejoin="round"></g>
  <g id="SVGRepo_iconCarrier">
    <path d="m487,311.5c0-23.401-12.708-44.564-32.894-55.642 0.594-2.735 0.894-5.528 0.894-8.358 0-5.807-1.299-11.521-3.789-16.776 7.728-11.692 11.789-25.153 11.789-39.224 0-24.173-12.234-46.596-32.266-59.76 0.179-1.442 0.266-2.842 0.266-4.24 0-12.456-6.029-24.172-16.002-31.58 0.001-0.14 0.002-0.279 0.002-0.42 0-28.87-19.654-54.102-47.249-61.389-10.9-20.84-32.581-34.111-56.251-34.111-24.209,0-45.29,13.622-56,33.599-10.71-19.977-31.791-33.599-56-33.599-23.67,0-45.351,13.271-56.251,34.111-27.595,7.287-47.249,32.519-47.249,61.389 0,0.141 0.001,0.28 0.002,0.42-9.973,7.408-16.002,19.124-16.002,31.58 0,1.398 0.087,2.797 0.266,4.24-20.032,13.164-32.266,35.587-32.266,59.76 0,14.071 4.061,27.532 11.789,39.224-2.49,5.255-3.789,10.969-3.789,16.776 0,2.83 0.299,5.623 0.894,8.358-20.186,11.078-32.894,32.241-32.894,55.642 0,27.946 18.411,52.263 44.301,60.48-2.834,6.122-4.301,12.725-4.301,19.52 0,20.977 13.789,39.268 33.461,45.334 6.194,28.937 32.001,50.166 62.039,50.166 4.704,0 9.401-0.537 14.031-1.601 8.081,15.558 24.17,25.601 41.969,25.601 16.782,0 31.548-8.756 40-21.932 8.452,13.176 23.218,21.932 40,21.932 17.799,0 33.888-10.043 41.969-25.601 4.63,1.064 9.327,1.601 14.031,1.601 30.038,0 55.845-21.229 62.039-50.166 19.672-6.066 33.461-24.357 33.461-45.334 0-6.795-1.467-13.398-4.301-19.52 25.89-8.217 44.301-32.534 44.301-60.48zm-271.5,184.5c-13.79,0-26.085-8.861-30.596-22.05-0.646-1.887-2.016-3.439-3.808-4.313-1.792-0.875-3.859-0.999-5.743-0.347-5.193,1.798-10.527,2.71-15.854,2.71-24.271,0-44.924-18.149-48.041-42.217-0.417-3.217-2.854-5.801-6.041-6.405-15.307-2.902-26.417-16.309-26.417-31.878 0-6.117 1.781-12.033 5.167-17.289 1.005,0.5 2.134,0.789 3.333,0.789 11.816,0 23.114-3.193 32.934-9.174 3.104,23.21 23.02,41.174 47.066,41.174 26.191,0 47.5-21.309 47.5-47.5 0-4.142-3.358-7.5-7.5-7.5s-7.5,3.358-7.5,7.5c0,17.921-14.58,32.5-32.5,32.5s-32.5-14.579-32.5-32.5c0-2.193 0.219-4.383 0.65-6.508 0.553-2.726-0.452-5.402-2.398-7.118-0.157-0.187-0.323-0.368-0.5-0.542-2.959-2.899-7.708-2.851-10.606,0.108-9.2,9.389-21.504,14.56-34.646,14.56-1.154,0-2.243,0.268-3.219,0.734-0.939-0.627-2.015-1.057-3.173-1.21-24.006-3.166-42.108-23.811-42.108-48.024 0-19.637 11.718-37.211 29.854-44.774 1.836-0.766 3.292-2.229 4.049-4.069s0.752-3.904-0.014-5.74c-1.253-3.006-1.889-6.174-1.889-9.417 0-4.648 1.361-9.217 3.935-13.213 1.71-2.655 1.574-6.098-0.341-8.609-7.585-9.949-11.594-21.767-11.594-34.178 0-20.561 11.205-39.521 29.242-49.481 0.046-0.025 0.083-0.06 0.128-0.085 8.273-4.536 17.623-6.934 27.129-6.934 16.208,0 31.658,6.978 42.39,19.145 1.482,1.681 3.55,2.539 5.627,2.539 1.763,0 3.532-0.618 4.958-1.875 3.106-2.74 3.404-7.479 0.664-10.586-13.576-15.394-33.127-24.223-53.638-24.223-8.315,0-16.537,1.457-24.285,4.25 0.995-7.475 5.408-14.022 12.225-17.919 2.515-1.438 3.978-4.195 3.756-7.083-0.101-1.321-0.196-2.568-0.196-3.748 0-23.025 16.362-43.02 38.905-47.542 2.375-0.476 4.374-2.071 5.367-4.281 7.823-17.42 25.184-28.677 44.228-28.677 26.743,0 48.5,21.757 48.5,48.5v146.11c-10.135-10.826-24.536-17.61-40.5-17.61-9.261,0-18.254,2.275-26.308,6.621-6.454-4.3-13.982-6.621-21.692-6.621-4.142,0-7.5,3.358-7.5,7.5s3.358,7.5 7.5,7.5c5.893,0 11.646,2.232 16.199,6.286 2.561,2.28 6.341,2.532 9.182,0.615 6.691-4.514 14.512-6.9 22.619-6.9 22.332,0 40.5,18.168 40.5,40.5v216c0,17.92-14.58,32.499-32.5,32.499zm214.393-136.476c-1.159,0.153-2.234,0.583-3.173,1.21-0.977-0.466-2.065-0.734-3.219-0.734-13.143,0-25.447-5.171-34.646-14.56-2.898-2.958-7.647-3.008-10.606-0.108-0.177,0.173-0.342,0.354-0.498,0.54-1.948,1.716-2.954,4.394-2.401,7.121 0.432,2.125 0.65,4.314 0.65,6.508 0,17.921-14.58,32.5-32.5,32.5-4.142,0-7.5,3.358-7.5,7.5s3.358,7.5 7.5,7.5c24.046,0 43.962-17.964 47.066-41.174 9.82,5.98 21.118,9.174 32.934,9.174 1.199,0 2.328-0.289 3.333-0.789 3.386,5.255 5.167,11.171 5.167,17.289 0,15.569-11.11,28.976-26.418,31.877-3.187,0.604-5.624,3.188-6.041,6.405-3.117,24.068-23.77,42.217-48.041,42.217-5.327,0-10.661-0.912-15.854-2.71-1.884-0.652-3.951-0.528-5.743,0.347-1.792,0.874-3.162,2.427-3.808,4.313-4.51,13.189-16.805,22.05-30.595,22.05-17.92,0-32.5-14.579-32.5-32.5v-154.11c10.135,10.826 24.536,17.61 40.5,17.61 9.261,0 18.254-2.275 26.308-6.621 6.454,4.3 13.982,6.621 21.692,6.621 4.142,0 7.5-3.358 7.5-7.5s-3.358-7.5-7.5-7.5c-5.893,0-11.646-2.232-16.199-6.286-2.561-2.279-6.34-2.532-9.182-0.615-6.691,4.514-14.512,6.9-22.619,6.9-22.332,0-40.5-18.168-40.5-40.5v-121.041c4.874,3.866 10.676,6.61 17.016,7.831-0.01,0.403-0.016,0.808-0.016,1.211 0,26.191 21.309,47.5 47.5,47.5s47.5-21.309 47.5-47.5c0-4.142-3.358-7.5-7.5-7.5s-7.5,3.358-7.5,7.5c0,17.921-14.58,32.5-32.5,32.5s-32.5-14.579-32.5-32.5c0-2.209 0.224-4.422 0.666-6.575 0.459-2.241-0.129-4.57-1.598-6.324-1.469-1.753-3.666-2.742-5.946-2.681-0.39,0.011-0.724,0.044-0.987,0.077-13.341-0.196-24.135-11.11-24.135-24.497v-56c0-26.743 21.757-48.5 48.5-48.5 19.044,0 36.405,11.257 44.229,28.678 0.993,2.21 2.991,3.805 5.367,4.281 22.542,4.521 38.904,24.516 38.904,47.541 0,1.18-0.095,2.427-0.196,3.748-0.221,2.888 1.241,5.646 3.756,7.083 6.817,3.897 11.23,10.444 12.225,17.919-7.749-2.793-15.971-4.25-24.285-4.25-4.142,0-7.5,3.358-7.5,7.5s3.358,7.5 7.5,7.5c9.507,0 18.856,2.397 27.129,6.934 0.045,0.026 0.083,0.06 0.128,0.085 18.038,9.96 29.243,28.92 29.243,49.481 0,12.411-4.009,24.229-11.594,34.178-1.915,2.512-2.051,5.954-0.341,8.609 2.574,3.996 3.935,8.564 3.935,13.213 0,3.243-0.636,6.411-1.889,9.417-0.766,1.836-0.771,3.9-0.014,5.74s2.213,3.303 4.049,4.069c18.136,7.563 29.854,25.137 29.854,44.774 0,24.213-18.102,44.858-42.107,48.024z"></path>
  </g>
</g>
</drefs>

  <g transform="translate(-180,-180)">
    <drefs>
      <g id="cube" class="cube-unit">
        <rect width="14" height="16" transform="skewY(30)"/>
        <rect width="14" height="16" transform="skewY(-30) translate(14 16.3)"/>
        <rect width="14" height="14" transform="scale(1.41,.81) rotate(45) translate(0 -14)"/>
      </g>
    </drefs>
    <drefs>
      <g id="chainlink">
        <ellipse cx="5" cy="0" rx="10" ry="5" stroke="black" style="fill:none;stroke-width:3" />
        <ellipse cx="-5" cy="0" rx="7" ry="2" fill="black" stroke="white" style="stroke-width:1" />
      </g>
      <g id="chain">
        <use xlink:href="#chainlink" x="0" y="0" />
        <use xlink:href="#chainlink" x="24" y="2" transform="rotate(3, 24, 2)" />
        <use xlink:href="#chainlink" x="48" y="5" transform="rotate(6, 48, 5)" />
        <ellipse cx="64" cy="7" rx="7" ry="2" fill="black" stroke="white" style="stroke-width:1" transform="rotate(9, 60, 7)" />
      </g>
    </drefs>

    <use xlink:href="#chain" x="522" y="227" transform="rotate(5, 500, 230)" />
    <use xlink:href="#chain" x="625" y="260" transform="rotate(25, 625, 260)" />
    <use xlink:href="#chain" x="710" y="323" transform="rotate(50, 710, 323)" />
    <use xlink:href="#chain" x="760" y="418" transform="rotate(73, 760, 418)" />
    <use xlink:href="#chain" x="773" y="522" transform="rotate(95, 773, 522)" />
    <use xlink:href="#chain" x="743" y="626" transform="rotate(118, 743, 626)" />
    <use xlink:href="#chain" x="675" y="710" transform="rotate(140, 675, 710)" />
    <use xlink:href="#chain" x="580" y="760" transform="rotate(160, 580, 760)" />
    <use xlink:href="#chain" x="477" y="773" transform="rotate(185, 477, 773)" />
    <use xlink:href="#chain" x="372" y="743" transform="rotate(208, 372, 743)" />
    <use xlink:href="#chain" x="290" y="673" transform="rotate(230, 290, 673)" />
    <use xlink:href="#chain" x="240" y="580" transform="rotate(250, 240, 580)" />
    <use xlink:href="#chain" x="225" y="475" transform="rotate(275, 225, 475)" />
    <use xlink:href="#chain" x="255" y="371" transform="rotate(300, 255, 371)" />
    <use xlink:href="#chain" x="324" y="290" transform="rotate(320, 324, 290)" />
    <use xlink:href="#chain" x="418" y="240" transform="rotate(342, 418, 240)" />

    <g fill="none" stroke="#00AAAA">
      <path d="M 500 815 A 315 315, 0, 1, 1, 715 270" stroke-width="5" />
      <circle cx="500" cy="500" r="300" stroke-width="12" />

      <g stroke-width="8">
        <path d="M 330 683 A 250 250, 0, 1, 1, 750 500" />
        <path d="M 410 717 A 235 235, 0, 0, 1, 350 319" stroke-dasharray="75,60" />
        <path d="M 735 500 A 235 235, 0, 0, 1, 535 732" stroke-dasharray="75,60" />
        <path d="M 280 500 A 220 220, 0, 1, 1, 351 662" />
        <path d="M 350 360 A 205 205, 0, 1, 1, 535 702" stroke-dasharray="60,20" />
      </g>
    </g>


    <g transform="rotate(45, 500, 500)" stroke-width="8" stroke="black" fill="none" style="opacity:0.9">
      <rect x="385" y="385" rx="20" ry="20" width="230" height="230" />

      <line x1="443" y1="385" x2="443" y2="340" />
      <circle cx="443" cy="350" r="8" fill="black" />
      <line x1="500" y1="385" x2="500" y2="340" />
      <line x1="558" y1="385" x2="558" y2="340" />

      <line x1="615" y1="443" x2="660" y2="443" />
      <circle cx="650" cy="443" r="8" fill="black" />
      <line x1="615" y1="500" x2="660" y2="500" />
      <line x1="615" y1="558" x2="660" y2="558" />

      <line x1="443" y1="615" x2="443" y2="660" />
      <circle cx="443" cy="650" r="8" fill="black" />
      <line x1="500" y1="615" x2="500" y2="660" />
      <line x1="558" y1="615" x2="558" y2="660" />

      <line x1="385" y1="443" x2="340" y2="443" />
      <circle cx="350" cy="443" r="8" fill="black" />
      <line x1="385" y1="500" x2="340" y2="500" />
      <line x1="385" y1="558" x2="340" y2="558" />

      <use xlink:href="#brain2" x="1175" y="1175" fill="black" transform="scale(.35 .35)" stroke-width="1" />
    </g>

    <use xlink:href="#cube" x="485" y="219" fill="#00AAAA" />
    <use xlink:href="#cube" x="590" y="239" fill="#00FFFF" />
    <use xlink:href="#cube" x="679" y="297" fill="#00AAAA" />
    <use xlink:href="#cube" x="740" y="387" fill="#00FFFF" />

    <use xlink:href="#cube" x="760" y="490" fill="#00AAAA" />
    <use xlink:href="#cube" x="740" y="595" fill="#00FFFF" />
    <use xlink:href="#cube" x="679" y="685" fill="#00AAAA" />
    <use xlink:href="#cube" x="590" y="745" fill="#00FFFF" />

    <use xlink:href="#cube" x="485" y="765" fill="#00AAAA" />
    <use xlink:href="#cube" x="380" y="745" fill="#00FFFF" />
    <use xlink:href="#cube" x="291" y="685" fill="#00AAAA" />
    <use xlink:href="#cube" x="232" y="595" fill="#00FFFF" />

    <use xlink:href="#cube" x="210" y="490" fill="#00AAAA" />
    <use xlink:href="#cube" x="232" y="387" fill="#00FFFF" />
    <use xlink:href="#cube" x="291" y="297" fill="#00AAAA" />
    <use xlink:href="#cube" x="380" y="239" fill="#00FFFF" />
  </g>
</svg>
